<svg width="257" height="257" viewBox="0 0 257 257" fill="none" xmlns="http://www.w3.org/2000/svg">
<circle cx="128.75" cy="128.411" r="128" fill="#0F172A"/>
<path d="M160.492 121.91C166.388 116.877 172.48 104.507 172.48 91.5063C172.48 71.5896 157.937 55.0255 130.618 55.0255H89.935H89.7377C82.6622 55.0255 76.7661 61.3156 76.7661 68.8626V187.956C76.7661 195.713 82.6622 201.796 89.7377 201.796C97.0092 201.796 102.907 195.713 102.907 187.956V138.892H131.405C143.786 138.892 154.596 145.814 154.596 156.506C154.596 163.006 152.434 166.99 151.648 170.764C150.075 177.264 151.648 182.505 157.544 185.86C163.833 189.423 171.695 187.328 175.232 180.62C178.966 173.698 180.735 165.941 180.735 156.295C180.735 141.201 171.695 127.572 160.492 121.91ZM128.653 114.153H102.907V79.5574H128.653C142.213 79.5574 148.307 87.9432 148.307 96.9603C148.307 107.442 139.856 114.153 128.653 114.153Z" fill="white"/>
<path d="M128.849 201.796C121.577 201.796 115.877 195.506 115.877 187.956C115.877 180.199 121.577 173.909 128.849 173.909C136.122 173.909 141.82 180.199 141.82 187.956C141.82 195.506 136.122 201.796 128.849 201.796Z" fill="white"/>
</svg>
